#!OML:ASF E:/inclinewalkrobotboard/Project1/Captureday1/Session1/subject1.ASF
:FULLY-SPECIFIED
:DEGREES
13
root 0 0 0 -0.5164680042598621 -2.480973403774375 -3.564328035298501
lowerback 6.5977029764647686 0.057493913021134824 0.4685839392062314
upperback -1.556588196780736 0.08072602348235991 1.213592796175745
thorax -5.311953045336054 0.03643470348865663 0.9973279387486129
lowerneck -11.875701592450886 -1.2173307770332586 1.0363952298682393
upperneck 16.34325020500044 -1.816428082324355 0.21360326983621203
head 7.251029093523062 -0.8126281591326202 -0.21645247165021458
rclavicle 4.888805478919477E-17 -4.545724665389121E-16
rhumerus -31.34317331861282 -5.061068058590478 -76.07370054935748
rradius 52.489823652843256
rwrist -1.6208343203017286
rhand -10.98874452802507 -16.92911155175324
rfingers 7.125019999999943
rthumb 15.049930207245534 -46.36086969758947
lclavicle -6.459752009818058E-17 -3.496237539219007E-16
lhumerus -42.81323465991939 0.20422891527136858 83.48718130964676
lradius 43.53449941726036
lwrist 1.2086958904259613
lhand -15.92532508482569 -11.051823234645619
lfingers 7.125019999999928
lthumb 10.354222348402981 18.093065007380766
rfemur -2.9479318498182208 1.0957578339500533 5.901302137904528
rtibia 8.875057111638105
rfoot -1.6462894086095812 -1.436099999599944
rtoes 0.8612313687125803
lfemur -6.594829420208229 -3.523617922501444 -12.431382527607697
ltibia 27.5929449573545
lfoot -18.915033876740193 7.663486461413639
ltoes -42.24772654106454
14
root 0 0 0 -0.5221353437237944 -2.460666277244516 -3.613412439726992
lowerback 6.965683453518092 0.16130938215346258 0.4944593050430641
upperback -1.473091668321172 0.22641273191776867 1.1631349026082742
thorax -5.429748065874274 0.10617892999215417 0.9038884891193916
lowerneck -11.761484536911881 -1.3651770918145212 0.9623800012878799
upperneck 15.688481920734793 -2.0270468002679918 0.3928724889447395
head 7.019079438689672 -0.9105216764304835 -0.1595960143984435
rclavicle 4.9486972201896164E-17 -4.472657157263775E-16
rhumerus -30.81846609319837 -4.931691303967105 -75.61864974718326
rradius 53.37375957022098
rwrist -2.0224840524640504
rhand -10.971631292303455 -17.285972560045376
rfingers 7.125019999999944
rthumb 15.065844288212611 -46.71217994336738
lclavicle -7.646280057201789E-17 -3.4309785048254083E-16
lhumerus -42.782434314704865 0.20630172639891925 83.50002518858427
lradius 43.49413536012584
lwrist 1.2043883332086678
lhand -15.943519549888517 -10.998666161135914
lfingers 7.125019999999927
lthumb 10.33859513341805 18.15751049448341
rfemur -3.0868861261452167 1.1525696129527474 6.195922761880712
rtibia 9.29182655497376
rfoot -1.7391488457081428 -1.5085394785650117
rtoes 0.9049965216006213
lfemur -6.601488137850492 -3.5241559940218616 -12.416597228731275
ltibia 27.590319735161327
lfoot -18.937520747202676 7.685719973085498
ltoes -42.320625625983624
15
root 0 0 0 -0.5268441689243534 -2.4376483116396312 -3.672927721399057
lowerback 7.415929098218289 0.28148926267083074 0.5208347854980303
upperback -1.3775218033266738 0.3949014720014298 1.1017271355305571
thorax -5.5807732523990525 0.18636121485354468 0.7936706044164844
lowerneck -11.613549786513941 -1.5372376809926953 0.8860167140378649
upperneck 14.834743017192892 -2.2701567545079113 0.5971184238365096
head 6.718644785190451 -1.0247600330478375 -0.09525339559737839
rclavicle 4.670609009519435E-17 -4.3804890426122524E-16
rhumerus -30.056293889087414 -4.796723015182094 -74.9689809718483
rradius 54.58484234041634
rwrist -2.565150620925552
rhand -10.968941385530318 -17.698983666863384
rfingers 7.125019999999945
rthumb 15.068341791546375 -47.12099177808525
lclavicle -8.468252996962803E-17 -3.3773088582814165E-16
lhumerus -42.78341477028079 0.20440521095136832 83.50880804701735
lradius 43.5033320079628
lwrist 1.197632262943604
lhand -15.934012501777067 -11.03224209012755
lfingers 7.125019999999927
lthumb 10.348011859319335 18.13387743070968
rfemur -3.166629248105499 1.1856741347305857 6.36558880981613
rtibia 9.52678936981232
rfoot -1.794701004593795 -1.5504618424067211
rtoes 0.9287970389730744
lfemur -6.583606178059355 -3.540555809038572 -12.360525096628022
ltibia 27.540122997979413
lfoot -19.038733319357927 7.775315643300192
ltoes -42.613720384449
16
root 0 0 0 -0.532518462562854 -2.4115469289561644 -3.743422849498928
lowerback 7.999688037057204 0.42006708751640753 0.5432699741944498
upperback -1.2660587797810996 0.5888700381518508 1.0254105461605658
thorax -5.789872281502186 0.27798342286796923 0.6633582660559463
lowerneck -11.42299281191218 -1.7412161577585632 0.8124209117373283
upperneck 13.638471250336275 -2.5530380113690523 0.8246940346995387
head 6.302033059609209 -1.1606762856940127 -0.02416540249866328
rclavicle 3.9989316211252E-17 -4.277744830639339E-16
rhumerus -29.092035116869376 -4.671146768096374 -74.15753612874727
rradius 56.05356093870941
rwrist -3.2168619168940205
rhand -10.984525866879759 -18.129546796808228
rfingers 7.125019999999945
rthumb 15.05374465092125 -47.54937129151321
lclavicle -8.733231685784736E-17 -3.327744567809004E-16
lhumerus -42.8123802558376 0.2023739791295133 83.51586722692342
lradius 43.550527460595454
lwrist 1.1838730058290328
lhand -15.899191781789 -11.144081943822
lfingers 7.125019999999928
lthumb 10.380762331874777 18.030872329726577
rfemur -3.197438473910989 1.1993165380621462 6.433161647050265
rtibia 9.614624091957367
rfoot -1.8191089359497061 -1.5671955966637001
rtoes 0.9371125561541027
lfemur -6.55328191331793 -3.5649051256993207 -12.285059269922769
ltibia 27.466224666164766
lfoot -19.177462634944327 7.896916674074273
ltoes -43.01061103027694
17
root 0 0 0 -0.5528862099473747 -2.3599417499211834 -3.88402982412738
lowerback 9.38120774268418 0.6984155510229444 0.5631825301786967
upperback -1.03346701516041 0.9778696254637217 0.8573316036056953
thorax -6.317881769613773 0.4598254923985402 0.3941749167645008
lowerneck -11.004294899873381 -2.173642140407299 0.6975213122479279
upperneck 10.602757421151495 -3.1351885616324857 1.2568853118531131
head 5.258819823561878 -1.4496312002645575 0.10945901328009378
rclavicle 2.0403371008927687E-17 -4.1170950982306E-16
rhumerus -27.205735981600007 -4.544393246579187 -72.60123654079253
rradius 58.75095748980772
rwrist -4.400426675425298
rhand -11.065951890563202 -18.719228757939664
rfingers 7.125019999999945
rthumb 14.977592799469408 -48.142357212342304
lclavicle -8.243983995122729E-17 -3.247183383967904E-16
lhumerus -42.891087365476956 0.20376198762690934 83.52625671257573
lradius 43.66042784449666
lwrist 1.1481455320723064
lhand -15.8146572145053 -11.41087176738321
lfingers 7.12501999999993
lthumb 10.460288623487848 17.774804600129873
rfemur -3.173926798742847 1.1928571945318487 6.393331455787417
rtibia 9.543438457317558
rfoot -1.8111513984095384 -1.5564210763182509
rtoes 0.9302776942876472
lfemur -6.509598172310069 -3.6001561889814777 -12.179687003148224
ltibia 27.360047399393522
lfoot -19.372294210392376 8.067541093253222
ltoes -43.5646856694751
18
root 0 0 0 -0.5643029996967053 -2.308088151115708 -4.021144023896625
lowerback 10.892893441623096 0.9628036747202589 0.5573811209698079
upperback -0.7811147650986456 1.3452877458879122 0.6836294260044882
thorax -6.901325564372554 0.6306017633615891 0.13280744149037804
lowerneck -10.503430032759233 -2.598686982261372 0.6315116985191852
upperneck 7.143848165129681 -3.692830861474207 1.6503084204737124
head 4.065849673818903 -1.7352550416062782 0.2296736105289727
rclavicle -2.7099649354960814E-18 -3.9699665970046917E-16
rhumerus -25.3461875046084 -4.443998050350575 -71.07061188205226
rradius 61.3770106004196
rwrist -5.550026318593936
rhand -11.155729103360617 -19.250176512573024
rfingers 7.125019999999944
rthumb 14.892862276228598 -48.68055767213323
lclavicle -6.643855807926566E-17 -3.1640804283533615E-16
lhumerus -42.984821295695234 0.2125087471677332 83.53975622050469
lradius 43.778960820705414
lwrist 1.0986342619612655
lhand -15.714850935255908 -11.722101278485681
lfingers 7.125019999999933
lthumb 10.554817071658736 17.475001797227
rfemur -3.136354370997257 1.1805820794633624 6.32454116106114
rtibia 9.43636241929858
rfoot -1.7932180728483318 -1.5384838950674604
rtoes 0.9200535021941849
lfemur -6.488326274258071 -3.619686910452222 -12.119635415201174
ltibia 27.300688703383784
lfoot -19.481380237822723 8.164104194952603
ltoes -43.8761658616978
19
root 0 0 0 -0.5562301371504188 -2.2333718768730275 -4.1922493786254895
lowerback 12.676401689418404 1.2987916594872422 0.5548489467957259
upperback -0.449931054204416 1.8096701840540836 0.4708815961621866
thorax -7.555147515032091 0.8483229438150931 -0.1880845666603007
lowerneck -9.830743816417414 -3.119831386625271 0.5342556079621289
upperneck 3.1873442729945953 -4.387764502038371 2.175419244697685
head 2.6821316454661543 -2.0851095471933374 0.39154687763121354
rclavicle -3.7019982935810606E-17 -3.7765216729395933E-16
rhumerus -22.51943526315269 -4.321644359921404 -68.75283794772093
rradius 65.32253448954165
rwrist -7.275511710610885
rhand -11.305861682180648 -19.987518790256303
rfingers 7.125019999999942
rthumb 14.751571969149692 -49.43075153822938
lclavicle -4.732510804922795E-17 -3.0510222242221167E-16
lhumerus -43.090764573019946 0.22883899029189705 83.5602096431564
lradius 43.90251400922126
lwrist 1.0314795050685868
lhand -15.598843080306006 -12.082979779855911
lfingers 7.125019999999936
lthumb 10.665597020683489 17.127577806341705
rfemur -3.0893430511477176 1.166342449651826 6.243990680153584
rtibia 9.31011769705342
rfoot -1.7708436366234785 -1.5164062354778494
rtoes 0.9102148574432376
lfemur -6.482208939256527 -3.63131898524305 -12.08058803056893
ltibia 27.264856075095157
lfoot -19.549703683320683 8.22640000810092
ltoes -44.072901602202805
